<svg width="603" height="182" viewBox="0 0 603 182" fill="none" xmlns="http://www.w3.org/2000/svg">
<path d="M374.006 142.184C339.007 167.981 288.277 181.745 244.6 181.745C183.358 181.745 128.224 159.094 86.5125 121.42C83.2354 118.458 86.1717 114.42 90.1042 116.727C135.119 142.918 190.777 158.674 248.27 158.674C287.045 158.674 329.7 150.652 368.92 134.004C374.845 131.488 379.8 137.884 374.006 142.184Z" fill="white"/>
<path d="M388.557 125.536C384.1 119.821 358.984 122.836 347.711 124.173C344.277 124.593 343.752 121.604 346.846 119.454C366.849 105.376 399.673 109.439 403.5 114.158C407.328 118.904 402.504 151.806 383.707 167.51C380.823 169.921 378.07 168.637 379.355 165.438C383.576 154.899 393.04 131.278 388.557 125.536" fill="white"/>
<path d="M348.497 20.066V6.38079C348.497 4.30966 350.07 2.92017 351.958 2.92017H413.227C415.193 2.92017 416.766 4.33588 416.766 6.38079V18.0997C416.74 20.066 415.088 22.6352 412.152 26.6988L380.403 72.0278C392.201 71.7394 404.654 73.4959 415.35 79.5258C417.762 80.889 418.418 82.8815 418.601 84.8478V99.4506C418.601 101.443 416.399 103.776 414.092 102.57C395.242 92.6866 370.205 91.6117 349.363 102.675C347.239 103.829 345.011 101.522 345.011 99.5292V85.6605C345.011 83.4321 345.037 79.6306 347.265 76.2487L384.047 23.5004H352.037C350.07 23.5004 348.497 22.1109 348.497 20.066" fill="white"/>
<path d="M124.999 105.454H106.359C104.576 105.323 103.16 103.986 103.029 102.282V6.61682C103.029 4.70299 104.628 3.1824 106.621 3.1824H124.003C125.812 3.261 127.253 4.65054 127.385 6.38085V18.8863H127.725C132.261 6.80031 140.781 1.1637 152.264 1.1637C163.931 1.1637 171.219 6.80031 176.462 18.8863C180.972 6.80031 191.223 1.1637 202.207 1.1637C210.02 1.1637 218.567 4.38837 223.784 11.6242C229.683 19.6728 228.477 31.3655 228.477 41.6163L228.451 101.994C228.451 103.908 226.851 105.454 224.859 105.454H206.245C204.383 105.323 202.889 103.829 202.889 101.994V51.2903C202.889 47.2529 203.256 37.1856 202.365 33.358C200.975 26.9349 196.807 25.1259 191.406 25.1259C186.897 25.1259 182.178 28.1408 180.264 32.9647C178.35 37.7886 178.534 45.8634 178.534 51.2903V101.994C178.534 103.908 176.934 105.454 174.942 105.454H156.328C154.44 105.323 152.972 103.829 152.972 101.994L152.946 51.2903C152.946 40.6201 154.702 24.9162 141.463 24.9162C128.066 24.9162 128.591 40.2268 128.591 51.2903V101.994C128.591 103.908 126.991 105.454 124.999 105.454Z" fill="white"/>
<path d="M469.514 1.1637C497.173 1.1637 512.143 24.9162 512.143 55.118C512.143 84.2973 495.6 107.447 469.514 107.447C442.354 107.447 427.567 83.6943 427.567 54.0955C427.567 24.3132 442.537 1.1637 469.514 1.1637V1.1637ZM469.672 20.6953C455.934 20.6953 455.069 39.4141 455.069 51.0806C455.069 62.7733 454.885 87.7317 469.514 87.7317C483.96 87.7317 484.642 67.5972 484.642 55.3277C484.642 47.2529 484.301 37.6051 481.863 29.9498C479.765 23.2907 475.597 20.6953 469.672 20.6953" fill="white"/>
<path d="M548.008 105.454H529.446C527.585 105.323 526.09 103.829 526.09 101.994L526.064 6.3022C526.221 4.54567 527.768 3.1824 529.656 3.1824H546.933C548.558 3.261 549.895 4.36216 550.262 5.85652V20.4855H550.603C555.82 7.40331 563.135 1.1637 576.007 1.1637C584.37 1.1637 592.524 4.17864 597.767 12.4369C602.644 20.0923 602.644 32.9647 602.644 42.2193V102.439C602.434 104.117 600.887 105.454 599.052 105.454H580.359C578.655 105.323 577.239 104.065 577.056 102.439V50.4776C577.056 40.0171 578.262 24.7064 565.389 24.7064C560.854 24.7064 556.685 27.7476 554.614 32.3617C551.993 38.2081 551.652 44.0282 551.652 50.4776V101.994C551.626 103.908 550 105.454 548.008 105.454" fill="white"/>
<path d="M55.2883 59.7583V55.7209C41.8128 55.7209 27.5771 58.6048 27.5771 74.4922C27.5771 82.5408 31.7455 87.9939 38.9027 87.9939C44.1461 87.9939 48.8389 84.7692 51.8014 79.5258C55.4718 73.0765 55.2883 67.0204 55.2883 59.7583V59.7583ZM74.0857 105.192C72.8536 106.293 71.0708 106.372 69.6813 105.638C63.4941 100.499 62.393 98.1136 58.9848 93.211C48.7603 103.645 41.5244 106.765 28.2587 106.765C12.581 106.765 0.363983 97.0911 0.363983 77.7169C0.363983 62.5898 8.56985 52.2865 20.2363 47.2529C30.356 42.796 44.4869 42.0095 55.2883 40.7773V38.3654C55.2883 33.9347 55.6291 28.6914 53.0336 24.8637C50.7527 21.4293 46.4008 20.0136 42.5731 20.0136C35.4683 20.0136 29.1239 23.6577 27.5771 31.2082C27.2625 32.8861 26.0303 34.5377 24.3524 34.6164L6.26277 32.6763C4.74219 32.3355 3.06431 31.1033 3.48378 28.77C7.65226 6.85275 27.446 0.246094 45.1686 0.246094C54.2396 0.246094 66.0896 2.65804 73.2468 9.52685C82.3178 17.9949 81.4527 29.2944 81.4527 41.5901V70.6383C81.4527 79.3685 85.0706 83.1962 88.4788 87.9152C89.6848 89.5931 89.9469 91.6118 88.4264 92.8702C84.6249 96.0425 77.861 101.941 74.1382 105.245L74.0857 105.192" fill="white"/>
<path d="M296.924 59.5122V55.4748C283.449 55.4748 269.213 58.3587 269.213 74.2461C269.213 82.2947 273.382 87.7478 280.539 87.7478C285.782 87.7478 290.475 84.5231 293.437 79.2797C297.108 72.8304 296.924 66.7743 296.924 59.5122V59.5122ZM315.722 104.946C314.49 106.047 312.707 106.126 311.317 105.392C305.13 100.253 304.029 97.8675 300.621 92.9649C290.396 103.399 283.16 106.519 269.895 106.519C254.217 106.519 242 96.845 242 77.4708C242 62.3437 250.206 52.0404 261.872 47.0068C271.992 42.5499 286.123 41.7634 296.924 40.5312V38.1193C296.924 33.6886 297.265 28.4453 294.67 24.6176C292.389 21.1832 288.037 19.7675 284.209 19.7675C277.104 19.7675 270.76 23.4116 269.213 30.9621C268.898 32.64 267.666 34.2916 265.988 34.3703L247.899 32.4302C246.378 32.0894 244.7 30.8572 245.12 28.5239C249.288 6.60666 269.082 0 286.805 0C295.876 0 307.726 2.41195 314.883 9.28076C323.954 17.7488 323.089 29.0483 323.089 41.344V70.3922C323.089 79.1225 326.707 82.9501 330.115 87.6691C331.321 89.347 331.583 91.3657 330.062 92.6241C326.261 95.7964 319.497 101.695 315.774 104.998L315.722 104.946" fill="white"/>
</svg>
