<svg xmlns="http://www.w3.org/2000/svg" width="375" viewBox="0 0 375 375" height="375" version="1.0"><g><g><g><path d="M 67.15625 -248.578125 C 86.144531 -248.578125 100.148438 -242.953125 109.171875 -231.703125 C 118.191406 -220.453125 122.703125 -205.453125 122.703125 -186.703125 L 122.703125 -164.546875 L 96.6875 -164.546875 L 96.6875 -188.109375 C 96.6875 -199.359375 94.398438 -208.085938 89.828125 -214.296875 C 85.253906 -220.503906 77.929688 -223.609375 67.859375 -223.609375 C 58.015625 -223.609375 50.75 -220.503906 46.0625 -214.296875 C 41.375 -208.085938 39.03125 -199.359375 39.03125 -188.109375 L 39.03125 -58.015625 C 39.03125 -46.765625 41.375 -38.03125 46.0625 -31.8125 C 50.75 -25.601562 58.015625 -22.5 67.859375 -22.5 C 77.929688 -22.5 85.253906 -25.601562 89.828125 -31.8125 C 94.398438 -38.03125 96.6875 -46.765625 96.6875 -58.015625 L 96.6875 -90.015625 L 122.703125 -90.015625 L 122.703125 -59.421875 C 122.703125 -40.671875 118.191406 -25.664062 109.171875 -14.40625 C 100.148438 -3.15625 86.144531 2.46875 67.15625 2.46875 C 48.40625 2.46875 34.515625 -3.15625 25.484375 -14.40625 C 16.460938 -25.664062 11.953125 -40.671875 11.953125 -59.421875 L 11.953125 -186.703125 C 11.953125 -196.078125 13.066406 -204.570312 15.296875 -212.1875 C 17.523438 -219.800781 20.921875 -226.300781 25.484375 -231.6875 C 30.054688 -237.082031 35.800781 -241.242188 42.71875 -244.171875 C 49.632812 -247.109375 57.78125 -248.578125 67.15625 -248.578125 Z M 67.15625 -248.578125" transform="translate(120.697 298.602)"/></g></g></g></svg>