<svg xmlns="http://www.w3.org/2000/svg" width="33.75" viewBox="0 0 33.75 56.25" height="56.25" version="1.0"><defs><clipPath id="a"><path d="M 4 0 L 30 0 L 30 55.511719 L 4 55.511719 Z M 4 0"/></clipPath></defs><g clip-path="url(#a)"><g><g><g><path d="M 14.8125 -54.8125 C 19 -54.8125 22.085938 -53.570312 24.078125 -51.09375 C 26.066406 -48.613281 27.0625 -45.304688 27.0625 -41.171875 L 27.0625 -36.28125 L 21.328125 -36.28125 L 21.328125 -41.484375 C 21.328125 -43.960938 20.820312 -45.882812 19.8125 -47.25 C 18.800781 -48.625 17.1875 -49.3125 14.96875 -49.3125 C 12.789062 -49.3125 11.1875 -48.625 10.15625 -47.25 C 9.125 -45.882812 8.609375 -43.960938 8.609375 -41.484375 L 8.609375 -12.796875 C 8.609375 -10.316406 9.125 -8.390625 10.15625 -7.015625 C 11.1875 -5.648438 12.789062 -4.96875 14.96875 -4.96875 C 17.1875 -4.96875 18.800781 -5.648438 19.8125 -7.015625 C 20.820312 -8.390625 21.328125 -10.316406 21.328125 -12.796875 L 21.328125 -19.84375 L 27.0625 -19.84375 L 27.0625 -13.109375 C 27.0625 -8.972656 26.066406 -5.660156 24.078125 -3.171875 C 22.085938 -0.691406 19 0.546875 14.8125 0.546875 C 10.675781 0.546875 7.613281 -0.691406 5.625 -3.171875 C 3.632812 -5.660156 2.640625 -8.972656 2.640625 -13.109375 L 2.640625 -41.171875 C 2.640625 -43.234375 2.882812 -45.101562 3.375 -46.78125 C 3.863281 -48.46875 4.613281 -49.90625 5.625 -51.09375 C 6.632812 -52.28125 7.898438 -53.195312 9.421875 -53.84375 C 10.941406 -54.488281 12.738281 -54.8125 14.8125 -54.8125 Z M 14.8125 -54.8125" transform="translate(2.14 54.728)"/></g></g></g></g></svg>