<svg width="199" height="118" viewBox="0 0 199 118" fill="none" xmlns="http://www.w3.org/2000/svg">
<path d="M196.918 65.9749C196.918 92.9005 183.322 114.596 166.57 114.596C149.816 114.596 136.222 92.8143 136.222 65.9749C136.222 39.1355 149.816 17.3542 166.57 17.3542C183.322 17.3542 196.918 39.0497 196.918 65.9749Z" fill="white"/>
<path d="M174.972 37.3333C174.384 37.3333 173.581 37.4192 173.046 37.8487C172.885 38.0203 172.671 38.1918 172.51 38.3621C172.136 38.8774 171.815 39.4777 171.493 40.0788C171.386 40.2492 171.28 40.5066 171.226 40.7641C170.584 42.479 169.888 44.1075 169.406 45.9083C168.925 47.7948 168.442 49.5955 167.961 51.5679C167.105 55.2552 166.355 59.1145 165.767 62.9734C165.659 63.5732 165.606 64.1743 165.499 64.86C164.857 69.2329 164.803 73.3496 169.192 72.7498C172.243 72.3203 175.241 71.0338 178.184 69.6626L177.863 73.0058C177.755 74.4646 177.166 81.3234 177.114 82.7821C177.007 84.5824 176.9 86.5552 176.953 88.4418C176.953 89.1274 176.953 89.7272 177.007 90.4146C177.061 90.8423 177.114 91.5273 177.328 91.9568C177.649 92.5566 178.344 92.7288 178.987 92.5571C179.736 92.301 180.164 92.2148 180.753 91.3572C181.234 90.6702 181.556 89.4706 181.877 88.4418C182.306 86.8972 182.626 85.3544 182.894 83.21C183.322 79.9522 184.178 71.4627 184.5 68.2032C184.554 67.8612 184.607 67.4323 184.607 67.0046C185.142 66.8325 185.677 66.5749 186.213 66.4029C187.39 65.9751 188.568 65.7172 189.745 65.6314C190.441 65.5456 191.19 65.5452 191.886 65.5452C192.261 65.5452 193.92 66.0607 193.867 64.6881C193.92 62.5437 192.261 62.0304 191.297 61.8583C190.28 61.6867 189.21 61.8585 188.246 62.1164C187.925 62.2022 187.551 62.2875 187.229 62.3738C186.587 62.5437 185.944 62.8016 185.25 63.059C185.785 58.4286 186.481 53.3692 187.07 49.2542C187.498 46.0805 187.283 41.9639 186.533 39.907C186.32 39.3055 185.143 38.7919 184.5 39.1356C184.019 39.3917 183.269 40.5925 182.894 41.6218C182.412 42.9068 181.823 45.051 181.61 45.9083C180.325 52.2535 179.683 57.9995 178.827 64.6026C178.773 64.86 178.773 65.2035 178.72 65.4596C178.344 65.6312 177.916 65.7174 177.542 65.8895C176.204 66.3172 174.865 67.09 173.474 67.3462C172.885 67.432 172.136 67.8614 171.815 66.9183C171.6 66.2327 171.868 64.8597 171.975 64.1741C172.296 62.1159 172.671 60.0576 173.152 57.999C175.24 49.1678 175.883 47.6236 176.418 42.2214C176.525 41.0205 176.525 39.7353 176.203 38.5339C175.936 37.505 175.508 37.3333 174.972 37.3333ZM154.288 40.4669C150.281 40.4741 145.52 45.3413 143.393 49.6814C142.109 52.2535 146.979 53.1968 148.103 51.4823C150.512 46.338 154.687 42.8232 155.222 50.7971C155.437 54.0566 154.794 57.5718 153.991 60.5735C151.958 68.1196 149.174 74.6364 146.605 81.4952C144.892 85.954 143.876 91.1853 147.461 93.0719C148.585 93.6717 149.763 94.0158 150.94 93.9296C152.332 93.8438 153.67 93.3302 155.008 92.9008C157.042 92.2151 159.075 91.6136 161.11 91.0142C162.18 90.7563 163.197 90.4144 164.268 90.2427C165.606 90.0707 166.998 90.0704 168.336 90.3283C168.871 90.4141 169.406 90.6703 169.941 90.7562C170.423 90.842 171.547 89.5568 171.601 88.6991C171.654 87.7561 170.423 86.9832 169.941 86.727C169.031 86.1259 167.961 85.7838 166.998 85.6975C165.392 85.6117 163.947 85.8698 162.395 86.3834C160.842 86.8974 159.29 87.4123 157.738 87.8401C156.239 88.2696 154.741 89.0412 153.241 89.2132C150.619 89.5569 151.262 89.1274 152.76 84.5824C154.259 80.1242 156.239 74.4647 158.059 68.9767C160.467 61.7724 162.126 54.0564 159.718 45.9945C158.545 41.9885 156.535 40.4629 154.288 40.4669Z" fill="#183DF2"/>
<path d="M131.03 82.0108C130.977 82.0966 130.923 82.0966 130.923 82.1807C128.835 85.1823 122.305 92.4706 120.218 85.3544C119.362 82.4385 119.468 78.5796 119.468 75.4077C119.468 72.7497 119.629 69.9201 119.736 67.0901C122.734 67.0042 127.015 62.6296 127.068 51.9119C127.068 45.1371 123.001 44.7094 121.93 44.7094C113.313 44.6236 111.493 65.3738 111.44 74.8066V75.7496C109.246 82.1807 106.837 87.9261 104.589 88.0124C103.465 88.0982 102.984 85.1823 102.984 81.6671C102.984 75.4935 104.267 68.6329 104.856 62.116C105.445 55.5992 104.856 51.2263 101.699 50.9684C94.2057 50.3673 89.977 66.8322 89.6016 67.7757C89.7625 59.1144 88.157 53.9701 83.1798 53.7984C79.6997 53.6264 76.1681 62.2877 76.1681 62.2877V60.4874C76.2206 56.8001 75.9536 48.3967 71.6714 48.3967H71.6178C70.4938 48.3967 68.5139 50.1112 66.6942 51.7398C64.0172 54.1404 58.344 56.7143 58.0234 55.9428C55.6683 50.3673 52.4563 49.0819 50.3157 48.6524C45.7665 47.7951 42.1264 50.711 41.8584 54.6557C41.8048 55.9428 42.1264 57.0562 42.4473 57.7431C41.3769 58.8565 40.4674 60.7431 39.6107 63.1453C38.6476 65.6313 37.7907 70.3478 37.3091 72.7497C36.7741 75.3219 36.1852 77.38 35.2757 79.9522C34.0981 83.4678 32.1174 88.7838 30.2974 90.2426C29.7088 90.6703 28.6919 91.2715 28.2104 90.0705C27.6753 88.6993 28.0497 84.6688 28.3703 82.6102C28.7993 79.8664 29.4418 75.236 29.8695 72.4918C30.4048 69.0624 30.8325 64.8598 31.1544 61.7724C31.5285 57.3995 31.3143 52.5975 28.7993 50.2832C25.3738 47.1095 21.1451 48.5666 18.2014 52.5117C16.3278 54.9994 15.1503 58.0851 13.7582 62.0302C13.3303 63.2312 12.4744 66.147 12.4744 66.147C12.4744 66.147 13.1693 58.1709 13.3303 56.0269C14.4543 42.4792 15.4709 29.2734 17.2373 15.8955C17.6125 12.8956 18.255 10.4079 18.2014 7.23594C18.1479 5.51972 17.9333 4.40634 17.5054 3.89104C16.0598 1.83244 12.6878 6.80645 11.6712 9.46443C9.42326 15.4677 8.35311 22.5844 7.389 29.3592C4.60596 49.5959 2.14374 91.6134 2.08991 92.4706C2.03743 94.5292 2.19731 98.2165 4.2854 98.474C5.40911 98.5602 6.05158 98.5602 7.7642 97.4451C9.47709 96.33 10.4401 93.9294 11.2433 90.7562C12.1527 87.3267 13.2767 82.6102 14.1873 78.7513C15.0967 74.8924 15.6318 72.1486 16.702 68.9766C17.559 66.4027 19.0035 63.317 20.8771 62.3739C21.5731 62.0302 23.0187 61.6007 22.7506 63.4873C22.6435 64.2604 21.038 73.5211 20.6636 76.1791C20.3956 77.9798 20.1286 80.1242 19.914 81.9245C18.8436 91.5276 22.8042 101.046 29.4943 97.7888C32.6525 96.2437 35.0612 92.8143 36.8812 88.6993C37.1482 88.0982 37.4163 87.4125 37.6835 86.7269C39.3437 95.3865 44.2135 98.2165 46.6224 98.3881C50.7972 98.7318 59.6825 94.1015 59.7361 68.7187C59.7361 66.9184 59.5754 64.0884 59.468 62.6296C59.468 62.8017 62.9471 61.944 65.5167 60.5732C66.2127 60.2295 66.8013 59.8 67.3364 59.3723C65.9982 69.3185 65.7301 83.8111 65.6238 89.1275C65.5167 97.1031 66.5868 98.3881 68.2997 98.474C69.1029 98.474 70.1733 98.2165 70.1733 98.2165C74.1336 96.4158 74.1336 91.8713 74.1336 91.8713C74.4017 70.6053 81.3598 59.8 82.9118 59.8858C83.3933 59.8858 83.5004 60.8293 83.554 62.2019C83.6078 66.9184 83.0189 71.6346 81.6268 79.9522C80.8772 84.3251 80.3957 87.7562 80.3957 89.8989C80.2886 96.9311 82.9118 97.4451 83.3933 97.5309H83.4468C86.0164 97.6167 86.498 93.8436 86.498 93.8436C92.0102 66.0607 96.8813 62.3739 96.8813 62.3739C95.9183 69.4902 94.8468 76.9505 94.7408 83.21C94.6334 91.4435 96.5608 98.7318 102.447 98.3023C105.927 98.0462 109.299 91.8713 111.921 85.3544C113.688 97.4451 118.612 98.5602 120.646 98.5602C124.178 98.5602 127.604 95.988 129.959 91.8713C130.655 90.6703 131.351 89.3849 131.94 88.0982C132.421 87.0689 133.599 84.8404 133.652 83.5537C133.813 80.6378 131.94 80.8957 131.029 82.0108H131.03V82.0108ZM120.86 51.9977C121.181 51.0546 121.984 50.0253 122.573 50.0253C123.054 50.0253 123.43 50.6247 123.43 52.2538C123.376 60.0579 120.592 60.9151 120.111 61.0867C120.379 57.7431 120.164 54.3978 120.86 51.9977V51.9977ZM52.4563 73.0916C52.1357 82.3527 50.8508 91.6992 48.2814 91.5276C46.087 91.4435 45.0169 84.8404 45.0169 78.3235C45.0169 70.6053 47.0501 61.1726 47.0501 61.1726C47.0501 61.1726 48.6566 61.7724 49.459 61.944C50.2086 62.116 51.9212 62.2877 51.9212 62.2877C52.3491 64.9456 52.6172 68.4613 52.4563 73.0916Z" fill="white"/>
</svg>
