<svg xmlns="http://www.w3.org/2000/svg" width="375" viewBox="0 0 375 375" height="375" version="1.0"><g><g><g><path d="M 22.484375 -83.25 C 28.847656 -83.25 33.539062 -81.363281 36.5625 -77.59375 C 39.582031 -73.820312 41.09375 -68.800781 41.09375 -62.53125 L 41.09375 -55.109375 L 32.375 -55.109375 L 32.375 -63 C 32.375 -66.757812 31.609375 -69.679688 30.078125 -71.765625 C 28.546875 -73.847656 26.09375 -74.890625 22.71875 -74.890625 C 19.425781 -74.890625 16.992188 -73.847656 15.421875 -71.765625 C 13.847656 -69.679688 13.0625 -66.757812 13.0625 -63 L 13.0625 -19.421875 C 13.0625 -15.660156 13.847656 -12.738281 15.421875 -10.65625 C 16.992188 -8.570312 19.425781 -7.53125 22.71875 -7.53125 C 26.09375 -7.53125 28.546875 -8.570312 30.078125 -10.65625 C 31.609375 -12.738281 32.375 -15.660156 32.375 -19.421875 L 32.375 -30.140625 L 41.09375 -30.140625 L 41.09375 -19.90625 C 41.09375 -13.625 39.582031 -8.597656 36.5625 -4.828125 C 33.539062 -1.054688 28.847656 0.828125 22.484375 0.828125 C 16.203125 0.828125 11.550781 -1.054688 8.53125 -4.828125 C 5.507812 -8.597656 4 -13.625 4 -19.90625 L 4 -62.53125 C 4 -65.664062 4.367188 -68.507812 5.109375 -71.0625 C 5.859375 -73.613281 7 -75.789062 8.53125 -77.59375 C 10.0625 -79.40625 11.984375 -80.800781 14.296875 -81.78125 C 16.617188 -82.757812 19.347656 -83.25 22.484375 -83.25 Z M 22.484375 -83.25" transform="translate(165.116 85.84)"/></g></g></g><g><g><g><path d="M 14.015625 -16.609375 L 10.828125 0 L 2.359375 0 L 18.140625 -82.421875 L 31.4375 -82.421875 L 47.21875 0 L 38.03125 0 L 34.859375 -16.609375 Z M 15.1875 -24.484375 L 33.5625 -24.484375 L 24.25 -72.0625 Z M 15.1875 -24.484375" transform="translate(162.648 229.105)"/></g></g></g><g><g><g><path d="M 4 -62.53125 C 4 -68.882812 5.550781 -73.925781 8.65625 -77.65625 C 11.757812 -81.382812 16.488281 -83.25 22.84375 -83.25 C 29.195312 -83.25 33.941406 -81.382812 37.078125 -77.65625 C 40.222656 -73.925781 41.796875 -68.882812 41.796875 -62.53125 L 41.796875 -19.90625 C 41.796875 -13.625 40.222656 -8.597656 37.078125 -4.828125 C 33.941406 -1.054688 29.195312 0.828125 22.84375 0.828125 C 16.488281 0.828125 11.757812 -1.054688 8.65625 -4.828125 C 5.550781 -8.597656 4 -13.625 4 -19.90625 Z M 13.0625 -19.421875 C 13.0625 -15.660156 13.863281 -12.738281 15.46875 -10.65625 C 17.082031 -8.570312 19.539062 -7.53125 22.84375 -7.53125 C 26.21875 -7.53125 28.6875 -8.570312 30.25 -10.65625 C 31.820312 -12.738281 32.609375 -15.660156 32.609375 -19.421875 L 32.609375 -63 C 32.609375 -66.757812 31.820312 -69.679688 30.25 -71.765625 C 28.6875 -73.847656 26.21875 -74.890625 22.84375 -74.890625 C 19.539062 -74.890625 17.082031 -73.847656 15.46875 -71.765625 C 13.863281 -69.679688 13.0625 -66.757812 13.0625 -63 Z M 13.0625 -19.421875" transform="translate(164.59 372.37)"/></g></g></g></svg>
