<svg width="256" height="146" viewBox="0 0 256 146" fill="none" xmlns="http://www.w3.org/2000/svg">
<path d="M91.5117 51.7578V57.6641H95.6406C96.6797 57.6641 97.6094 57.7826 98.4297 58.0195C99.2682 58.2565 99.9883 58.6211 100.59 59.1133C101.173 59.6055 101.62 60.2344 101.93 61C102.24 61.7656 102.395 62.6862 102.395 63.7617C102.395 64.6185 102.258 65.3932 101.984 66.0859C101.729 66.7786 101.346 67.362 100.836 67.8359C100.307 68.3646 99.651 68.7656 98.8672 69.0391C98.0833 69.3125 97.1992 69.4492 96.2148 69.4492C95.3398 69.4492 94.5378 69.3216 93.8086 69.0664C93.0794 68.793 92.4505 68.4193 91.9219 67.9453C91.375 67.4896 90.9557 66.9427 90.6641 66.3047C90.3724 65.6484 90.2266 64.9375 90.2266 64.1719H82.625C82.625 66.1042 82.9987 67.7812 83.7461 69.2031C84.5117 70.625 85.5234 71.8008 86.7812 72.7305C88.0391 73.6784 89.4701 74.3893 91.0742 74.8633C92.6966 75.319 94.3555 75.5469 96.0508 75.5469C98.0195 75.5469 99.8516 75.2917 101.547 74.7812C103.26 74.2526 104.737 73.487 105.977 72.4844C107.216 71.5 108.191 70.2786 108.902 68.8203C109.613 67.362 109.969 65.7031 109.969 63.8438C109.969 62.7865 109.841 61.7839 109.586 60.8359C109.331 59.888 108.939 59.013 108.41 58.2109C107.882 57.4271 107.207 56.7253 106.387 56.1055C105.585 55.4857 104.628 54.9753 103.516 54.5742C104.464 54.1185 105.302 53.5807 106.031 52.9609C106.76 52.3229 107.371 51.6302 107.863 50.8828C108.355 50.1354 108.729 49.3516 108.984 48.5312C109.24 47.6927 109.367 46.8451 109.367 45.9883C109.367 44.1289 109.039 42.4974 108.383 41.0938C107.745 39.6719 106.842 38.4779 105.676 37.5117C104.509 36.5638 103.105 35.8529 101.465 35.3789C99.8242 34.8867 98.0195 34.6406 96.0508 34.6406C94.2279 34.6406 92.5234 34.9049 90.9375 35.4336C89.3698 35.9622 88.0026 36.7005 86.8359 37.6484C85.6693 38.6146 84.7487 39.763 84.0742 41.0938C83.418 42.4245 83.0898 43.901 83.0898 45.5234H90.6914C90.6914 44.7943 90.8372 44.138 91.1289 43.5547C91.4206 42.9714 91.8216 42.4701 92.332 42.0508C92.8242 41.6497 93.3984 41.3398 94.0547 41.1211C94.7292 40.9023 95.4492 40.793 96.2148 40.793C97.1445 40.793 97.9557 40.9206 98.6484 41.1758C99.3594 41.431 99.9427 41.7865 100.398 42.2422C100.854 42.7161 101.191 43.2812 101.41 43.9375C101.647 44.5755 101.766 45.2865 101.766 46.0703C101.766 46.8724 101.647 47.6198 101.41 48.3125C101.191 48.987 100.854 49.5612 100.398 50.0352C99.9062 50.582 99.2591 51.0104 98.457 51.3203C97.6732 51.612 96.7344 51.7578 95.6406 51.7578H91.5117Z" fill="white"/>
<path d="M153.188 60.5469L152.969 61.8047H155.758L154.727 67.75H151.945L151.719 69H158.594L158.82 67.75H156.141L157.391 60.5469H153.188ZM156.18 58.3516C156.18 58.6016 156.258 58.8021 156.414 58.9531C156.576 59.099 156.779 59.1667 157.023 59.1562C157.273 59.1458 157.477 59.0651 157.633 58.9141C157.789 58.7578 157.867 58.5547 157.867 58.3047C157.867 58.0495 157.789 57.8438 157.633 57.6875C157.477 57.5312 157.276 57.4583 157.031 57.4688C156.781 57.4792 156.578 57.5677 156.422 57.7344C156.266 57.8958 156.185 58.1016 156.18 58.3516ZM160.891 69H162.305L163.359 62.9297C163.5 62.7422 163.654 62.5677 163.82 62.4062C163.992 62.2396 164.174 62.0964 164.367 61.9766C164.56 61.862 164.766 61.7734 164.984 61.7109C165.208 61.6432 165.443 61.612 165.688 61.6172C166 61.6224 166.258 61.6797 166.461 61.7891C166.664 61.8932 166.823 62.0365 166.938 62.2188C167.047 62.401 167.115 62.6146 167.141 62.8594C167.172 63.1042 167.172 63.3698 167.141 63.6562L166.242 69H167.656L168.539 63.7188C168.602 63.2917 168.599 62.8698 168.531 62.4531C168.464 62.0312 168.336 61.6719 168.148 61.375C167.956 61.0833 167.698 60.849 167.375 60.6719C167.052 60.4948 166.654 60.401 166.18 60.3906C165.898 60.3854 165.63 60.4167 165.375 60.4844C165.12 60.5469 164.878 60.6406 164.648 60.7656C164.419 60.8906 164.203 61.0417 164 61.2188C163.797 61.3958 163.609 61.5885 163.438 61.7969L163.617 60.5391L162.359 60.5469L160.891 69ZM175.438 58.5H174.016L173.656 60.5469H171.508L171.312 61.6641H173.469L172.703 66.2578C172.667 66.6432 172.68 67.0104 172.742 67.3594C172.81 67.7031 172.932 68.0052 173.109 68.2656C173.286 68.5312 173.521 68.7448 173.812 68.9062C174.104 69.0625 174.461 69.1432 174.883 69.1484C175.253 69.1589 175.638 69.1354 176.039 69.0781C176.44 69.0208 176.805 68.901 177.133 68.7188L177 67.6797C176.719 67.7422 176.435 67.7995 176.148 67.8516C175.867 67.9036 175.583 67.9245 175.297 67.9141C175.047 67.9089 174.839 67.862 174.672 67.7734C174.51 67.6849 174.385 67.5677 174.297 67.4219C174.208 67.276 174.148 67.1042 174.117 66.9062C174.091 66.7083 174.091 66.4948 174.117 66.2656L174.883 61.6641H178.008L178.203 60.5469H175.078L175.438 58.5ZM183.391 69.1562C184.047 69.1667 184.682 69.0365 185.297 68.7656C185.917 68.4896 186.419 68.0807 186.805 67.5391L185.992 66.8516C185.659 67.1953 185.284 67.4714 184.867 67.6797C184.456 67.888 184.005 67.9844 183.516 67.9688C183.135 67.9583 182.807 67.8724 182.531 67.7109C182.255 67.5495 182.034 67.3385 181.867 67.0781C181.701 66.8177 181.583 66.5234 181.516 66.1953C181.453 65.8672 181.443 65.5312 181.484 65.1875H187.305L187.406 64.5391C187.474 64.0182 187.469 63.513 187.391 63.0234C187.312 62.5286 187.156 62.0885 186.922 61.7031C186.688 61.3177 186.37 61.0078 185.969 60.7734C185.568 60.5339 185.076 60.4062 184.492 60.3906C184.091 60.3802 183.708 60.4297 183.344 60.5391C182.984 60.6484 182.651 60.8021 182.344 61C182.031 61.2031 181.747 61.4427 181.492 61.7188C181.242 61.9948 181.023 62.2969 180.836 62.625C180.643 62.9531 180.487 63.2995 180.367 63.6641C180.247 64.0234 180.167 64.388 180.125 64.7578L180.086 65.0938C180.039 65.6354 180.076 66.1484 180.195 66.6328C180.32 67.1172 180.523 67.5443 180.805 67.9141C181.086 68.2839 181.443 68.5807 181.875 68.8047C182.312 69.0286 182.818 69.1458 183.391 69.1562ZM184.422 61.5781C184.729 61.5885 184.997 61.6615 185.227 61.7969C185.456 61.9271 185.643 62.099 185.789 62.3125C185.935 62.526 186.034 62.7682 186.086 63.0391C186.138 63.3099 186.141 63.5885 186.094 63.875L186.062 64.0156L181.656 64C181.766 63.6979 181.904 63.3984 182.07 63.1016C182.237 62.8047 182.435 62.5417 182.664 62.3125C182.888 62.0833 183.146 61.901 183.438 61.7656C183.729 61.625 184.057 61.5625 184.422 61.5781ZM191.367 57L191.141 58.2578H193.938L192.289 67.75H189.508L189.281 69H196.156L196.383 67.75H193.703L195.57 57H191.367ZM200.758 57L200.531 58.2578H203.328L201.68 67.75H198.898L198.672 69H205.547L205.773 67.75H203.094L204.961 57H200.758ZM209.531 60.5469L209.312 61.8047H212.102L211.07 67.75H208.289L208.062 69H214.938L215.164 67.75H212.484L213.734 60.5469H209.531ZM212.523 58.3516C212.523 58.6016 212.602 58.8021 212.758 58.9531C212.919 59.099 213.122 59.1667 213.367 59.1562C213.617 59.1458 213.82 59.0651 213.977 58.9141C214.133 58.7578 214.211 58.5547 214.211 58.3047C214.211 58.0495 214.133 57.8438 213.977 57.6875C213.82 57.5312 213.62 57.4583 213.375 57.4688C213.125 57.4792 212.922 57.5677 212.766 57.7344C212.609 57.8958 212.529 58.1016 212.523 58.3516ZM217.727 64.7578L217.711 64.9219C217.674 65.2292 217.664 65.5469 217.68 65.875C217.695 66.1979 217.74 66.513 217.812 66.8203C217.88 67.1328 217.979 67.4297 218.109 67.7109C218.245 67.987 218.417 68.2292 218.625 68.4375C218.828 68.651 219.07 68.8229 219.352 68.9531C219.638 69.0781 219.966 69.1458 220.336 69.1562C220.628 69.1615 220.904 69.1328 221.164 69.0703C221.43 69.0078 221.677 68.9115 221.906 68.7812C222.052 68.7031 222.19 68.612 222.32 68.5078C222.456 68.4036 222.586 68.2891 222.711 68.1641L222.555 68.9062C222.487 69.2448 222.378 69.5547 222.227 69.8359C222.081 70.1172 221.898 70.3568 221.68 70.5547C221.456 70.7526 221.195 70.9036 220.898 71.0078C220.607 71.1172 220.281 71.1667 219.922 71.1562C219.484 71.1458 219.096 71.0365 218.758 70.8281C218.424 70.6198 218.135 70.3411 217.891 69.9922L217.086 70.8594C217.409 71.3281 217.828 71.6875 218.344 71.9375C218.865 72.1927 219.406 72.3255 219.969 72.3359C220.516 72.3516 221.016 72.2734 221.469 72.1016C221.927 71.9349 222.331 71.6953 222.68 71.3828C223.023 71.0755 223.305 70.7031 223.523 70.2656C223.747 69.8281 223.896 69.3464 223.969 68.8203L225.375 60.5469H224.078L223.805 61.4766C223.711 61.3359 223.604 61.2109 223.484 61.1016C223.37 60.987 223.247 60.888 223.117 60.8047C222.909 60.6641 222.677 60.5599 222.422 60.4922C222.172 60.4245 221.909 60.388 221.633 60.3828C221.227 60.3724 220.854 60.4245 220.516 60.5391C220.182 60.6536 219.878 60.8151 219.602 61.0234C219.326 61.2318 219.081 61.4766 218.867 61.7578C218.659 62.0391 218.477 62.3438 218.32 62.6719C218.164 63 218.036 63.3438 217.938 63.7031C217.844 64.0573 217.773 64.4089 217.727 64.7578ZM219.117 64.9219L219.141 64.7578C219.193 64.3828 219.284 64.0078 219.414 63.6328C219.544 63.2526 219.721 62.9089 219.945 62.6016C220.164 62.2995 220.435 62.0547 220.758 61.8672C221.081 61.6797 221.461 61.5938 221.898 61.6094C222.128 61.6146 222.336 61.6536 222.523 61.7266C222.711 61.7943 222.878 61.888 223.023 62.0078C223.138 62.1068 223.24 62.224 223.328 62.3594C223.422 62.4948 223.5 62.6432 223.562 62.8047L222.898 66.7031C222.763 66.8958 222.615 67.0729 222.453 67.2344C222.297 67.3906 222.128 67.5234 221.945 67.6328C221.779 67.7318 221.596 67.8099 221.398 67.8672C221.201 67.9193 220.99 67.9427 220.766 67.9375C220.495 67.9271 220.263 67.875 220.07 67.7812C219.883 67.6875 219.724 67.5625 219.594 67.4062C219.464 67.2552 219.359 67.0807 219.281 66.8828C219.208 66.6797 219.156 66.4688 219.125 66.25C219.094 66.0312 219.078 65.8073 219.078 65.5781C219.078 65.349 219.091 65.1302 219.117 64.9219ZM230.344 69.1562C231 69.1667 231.635 69.0365 232.25 68.7656C232.87 68.4896 233.372 68.0807 233.758 67.5391L232.945 66.8516C232.612 67.1953 232.237 67.4714 231.82 67.6797C231.409 67.888 230.958 67.9844 230.469 67.9688C230.089 67.9583 229.76 67.8724 229.484 67.7109C229.208 67.5495 228.987 67.3385 228.82 67.0781C228.654 66.8177 228.536 66.5234 228.469 66.1953C228.406 65.8672 228.396 65.5312 228.438 65.1875H234.258L234.359 64.5391C234.427 64.0182 234.422 63.513 234.344 63.0234C234.266 62.5286 234.109 62.0885 233.875 61.7031C233.641 61.3177 233.323 61.0078 232.922 60.7734C232.521 60.5339 232.029 60.4062 231.445 60.3906C231.044 60.3802 230.661 60.4297 230.297 60.5391C229.938 60.6484 229.604 60.8021 229.297 61C228.984 61.2031 228.701 61.4427 228.445 61.7188C228.195 61.9948 227.977 62.2969 227.789 62.625C227.596 62.9531 227.44 63.2995 227.32 63.6641C227.201 64.0234 227.12 64.388 227.078 64.7578L227.039 65.0938C226.992 65.6354 227.029 66.1484 227.148 66.6328C227.273 67.1172 227.477 67.5443 227.758 67.9141C228.039 68.2839 228.396 68.5807 228.828 68.8047C229.266 69.0286 229.771 69.1458 230.344 69.1562ZM231.375 61.5781C231.682 61.5885 231.951 61.6615 232.18 61.7969C232.409 61.9271 232.596 62.099 232.742 62.3125C232.888 62.526 232.987 62.7682 233.039 63.0391C233.091 63.3099 233.094 63.5885 233.047 63.875L233.016 64.0156L228.609 64C228.719 63.6979 228.857 63.3984 229.023 63.1016C229.19 62.8047 229.388 62.5417 229.617 62.3125C229.841 62.0833 230.099 61.901 230.391 61.7656C230.682 61.625 231.01 61.5625 231.375 61.5781ZM236.016 69H237.43L238.484 62.9297C238.625 62.7422 238.779 62.5677 238.945 62.4062C239.117 62.2396 239.299 62.0964 239.492 61.9766C239.685 61.862 239.891 61.7734 240.109 61.7109C240.333 61.6432 240.568 61.612 240.812 61.6172C241.125 61.6224 241.383 61.6797 241.586 61.7891C241.789 61.8932 241.948 62.0365 242.062 62.2188C242.172 62.401 242.24 62.6146 242.266 62.8594C242.297 63.1042 242.297 63.3698 242.266 63.6562L241.367 69H242.781L243.664 63.7188C243.727 63.2917 243.724 62.8698 243.656 62.4531C243.589 62.0312 243.461 61.6719 243.273 61.375C243.081 61.0833 242.823 60.849 242.5 60.6719C242.177 60.4948 241.779 60.401 241.305 60.3906C241.023 60.3854 240.755 60.4167 240.5 60.4844C240.245 60.5469 240.003 60.6406 239.773 60.7656C239.544 60.8906 239.328 61.0417 239.125 61.2188C238.922 61.3958 238.734 61.5885 238.562 61.7969L238.742 60.5391L237.484 60.5469L236.016 69ZM250.562 58.5H249.141L248.781 60.5469H246.633L246.438 61.6641H248.594L247.828 66.2578C247.792 66.6432 247.805 67.0104 247.867 67.3594C247.935 67.7031 248.057 68.0052 248.234 68.2656C248.411 68.5312 248.646 68.7448 248.938 68.9062C249.229 69.0625 249.586 69.1432 250.008 69.1484C250.378 69.1589 250.763 69.1354 251.164 69.0781C251.565 69.0208 251.93 68.901 252.258 68.7188L252.125 67.6797C251.844 67.7422 251.56 67.7995 251.273 67.8516C250.992 67.9036 250.708 67.9245 250.422 67.9141C250.172 67.9089 249.964 67.862 249.797 67.7734C249.635 67.6849 249.51 67.5677 249.422 67.4219C249.333 67.276 249.273 67.1042 249.242 66.9062C249.216 66.7083 249.216 66.4948 249.242 66.2656L250.008 61.6641H253.133L253.328 60.5469H250.203L250.562 58.5ZM151.5 90H152.914L153.969 83.9297C154.109 83.7422 154.263 83.5677 154.43 83.4062C154.602 83.2396 154.784 83.0964 154.977 82.9766C155.169 82.862 155.375 82.7734 155.594 82.7109C155.818 82.6432 156.052 82.612 156.297 82.6172C156.609 82.6224 156.867 82.6797 157.07 82.7891C157.273 82.8932 157.432 83.0365 157.547 83.2188C157.656 83.401 157.724 83.6146 157.75 83.8594C157.781 84.1042 157.781 84.3698 157.75 84.6562L156.852 90H158.266L159.148 84.7188C159.211 84.2917 159.208 83.8698 159.141 83.4531C159.073 83.0312 158.945 82.6719 158.758 82.375C158.565 82.0833 158.307 81.849 157.984 81.6719C157.661 81.4948 157.263 81.401 156.789 81.3906C156.508 81.3854 156.24 81.4167 155.984 81.4844C155.729 81.5469 155.487 81.6406 155.258 81.7656C155.029 81.8906 154.812 82.0417 154.609 82.2188C154.406 82.3958 154.219 82.5885 154.047 82.7969L154.227 81.5391L152.969 81.5469L151.5 90ZM163.867 90.1562C164.414 90.1667 164.904 90.0521 165.336 89.8125C165.768 89.5729 166.151 89.2474 166.484 88.8359L166.305 90H167.578L169.047 81.5469H167.625L166.57 87.6172C166.435 87.8255 166.286 88.0104 166.125 88.1719C165.964 88.3333 165.789 88.4714 165.602 88.5859C165.393 88.7057 165.169 88.7969 164.93 88.8594C164.695 88.9167 164.443 88.9401 164.172 88.9297C163.844 88.9193 163.591 88.8411 163.414 88.6953C163.237 88.5495 163.112 88.3646 163.039 88.1406C162.961 87.9167 162.924 87.6693 162.93 87.3984C162.935 87.1224 162.953 86.8542 162.984 86.5938L163.82 81.5469H162.406L161.562 86.5703C161.516 87.0026 161.513 87.4323 161.555 87.8594C161.602 88.2812 161.714 88.6615 161.891 89C162.062 89.3385 162.307 89.6146 162.625 89.8281C162.948 90.0365 163.362 90.1458 163.867 90.1562ZM175.438 79.5H174.016L173.656 81.5469H171.508L171.312 82.6641H173.469L172.703 87.2578C172.667 87.6432 172.68 88.0104 172.742 88.3594C172.81 88.7031 172.932 89.0052 173.109 89.2656C173.286 89.5312 173.521 89.7448 173.812 89.9062C174.104 90.0625 174.461 90.1432 174.883 90.1484C175.253 90.1589 175.638 90.1354 176.039 90.0781C176.44 90.0208 176.805 89.901 177.133 89.7188L177 88.6797C176.719 88.7422 176.435 88.7995 176.148 88.8516C175.867 88.9036 175.583 88.9245 175.297 88.9141C175.047 88.9089 174.839 88.862 174.672 88.7734C174.51 88.6849 174.385 88.5677 174.297 88.4219C174.208 88.276 174.148 88.1042 174.117 87.9062C174.091 87.7083 174.091 87.4948 174.117 87.2656L174.883 82.6641H178.008L178.203 81.5469H175.078L175.438 79.5ZM186.445 81.375C186.133 81.375 185.836 81.4115 185.555 81.4844C185.279 81.5521 185.016 81.651 184.766 81.7812C184.516 81.9167 184.279 82.0781 184.055 82.2656C183.831 82.4531 183.62 82.6615 183.422 82.8906L183.469 82.6406L183.656 81.5469H182.312L180.852 90H182.266L183.203 84.5703C183.375 84.2578 183.57 83.9818 183.789 83.7422C184.013 83.5026 184.26 83.3099 184.531 83.1641C184.745 83.0443 184.979 82.9557 185.234 82.8984C185.495 82.8359 185.771 82.8047 186.062 82.8047C186.318 82.8099 186.57 82.8307 186.82 82.8672C187.07 82.9036 187.32 82.9505 187.57 83.0078L187.93 81.6016C187.69 81.513 187.445 81.4557 187.195 81.4297C186.945 81.3984 186.695 81.3802 186.445 81.375ZM190.75 81.5469L190.531 82.8047H193.32L192.289 88.75H189.508L189.281 90H196.156L196.383 88.75H193.703L194.953 81.5469H190.75ZM193.742 79.3516C193.742 79.6016 193.82 79.8021 193.977 79.9531C194.138 80.099 194.341 80.1667 194.586 80.1562C194.836 80.1458 195.039 80.0651 195.195 79.9141C195.352 79.7578 195.43 79.5547 195.43 79.3047C195.43 79.0495 195.352 78.8438 195.195 78.6875C195.039 78.5312 194.839 78.4583 194.594 78.4688C194.344 78.4792 194.141 78.5677 193.984 78.7344C193.828 78.8958 193.747 79.1016 193.742 79.3516ZM203.609 79.5H202.188L201.828 81.5469H199.68L199.484 82.6641H201.641L200.875 87.2578C200.839 87.6432 200.852 88.0104 200.914 88.3594C200.982 88.7031 201.104 89.0052 201.281 89.2656C201.458 89.5312 201.693 89.7448 201.984 89.9062C202.276 90.0625 202.633 90.1432 203.055 90.1484C203.424 90.1589 203.81 90.1354 204.211 90.0781C204.612 90.0208 204.977 89.901 205.305 89.7188L205.172 88.6797C204.891 88.7422 204.607 88.7995 204.32 88.8516C204.039 88.9036 203.755 88.9245 203.469 88.9141C203.219 88.9089 203.01 88.862 202.844 88.7734C202.682 88.6849 202.557 88.5677 202.469 88.4219C202.38 88.276 202.32 88.1042 202.289 87.9062C202.263 87.7083 202.263 87.4948 202.289 87.2656L203.055 82.6641H206.18L206.375 81.5469H203.25L203.609 79.5ZM209.531 81.5469L209.312 82.8047H212.102L211.07 88.75H208.289L208.062 90H214.938L215.164 88.75H212.484L213.734 81.5469H209.531ZM212.523 79.3516C212.523 79.6016 212.602 79.8021 212.758 79.9531C212.919 80.099 213.122 80.1667 213.367 80.1562C213.617 80.1458 213.82 80.0651 213.977 79.9141C214.133 79.7578 214.211 79.5547 214.211 79.3047C214.211 79.0495 214.133 78.8438 213.977 78.6875C213.82 78.5312 213.62 78.4583 213.375 78.4688C213.125 78.4792 212.922 78.5677 212.766 78.7344C212.609 78.8958 212.529 79.1016 212.523 79.3516ZM217.594 85.75L217.57 85.9219C217.529 86.3073 217.526 86.6849 217.562 87.0547C217.604 87.4245 217.688 87.7734 217.812 88.1016C217.896 88.3255 218 88.5391 218.125 88.7422C218.255 88.9453 218.401 89.1354 218.562 89.3125C218.818 89.5625 219.122 89.763 219.477 89.9141C219.831 90.0651 220.234 90.1458 220.688 90.1562C221.302 90.1719 221.859 90.0625 222.359 89.8281C222.865 89.5938 223.302 89.276 223.672 88.875C224.042 88.4792 224.341 88.0182 224.57 87.4922C224.805 86.9661 224.958 86.4193 225.031 85.8516L225.047 85.6719C225.089 85.2969 225.091 84.9245 225.055 84.5547C225.018 84.1849 224.943 83.8359 224.828 83.5078C224.734 83.237 224.609 82.9844 224.453 82.75C224.302 82.5156 224.13 82.3099 223.938 82.1328C223.703 81.9141 223.414 81.7396 223.07 81.6094C222.732 81.474 222.352 81.401 221.93 81.3906C221.326 81.375 220.779 81.4818 220.289 81.7109C219.805 81.9349 219.38 82.2318 219.016 82.6016C218.62 83.0078 218.302 83.487 218.062 84.0391C217.823 84.5859 217.667 85.1562 217.594 85.75ZM218.984 85.9219L219.008 85.75C219.06 85.375 219.156 84.9974 219.297 84.6172C219.438 84.2318 219.625 83.8854 219.859 83.5781C220.094 83.2708 220.378 83.0234 220.711 82.8359C221.044 82.6432 221.43 82.5547 221.867 82.5703C222.273 82.5859 222.602 82.6953 222.852 82.8984C223.102 83.0964 223.292 83.3464 223.422 83.6484C223.552 83.9557 223.628 84.2891 223.648 84.6484C223.674 85.0078 223.669 85.3516 223.633 85.6797L223.617 85.8516C223.591 86.1484 223.5 86.5052 223.344 86.9219C223.188 87.3385 222.992 87.6979 222.758 88C222.518 88.3021 222.232 88.5469 221.898 88.7344C221.565 88.9219 221.182 89.0078 220.75 88.9922C220.385 88.9766 220.078 88.8854 219.828 88.7188C219.578 88.5521 219.391 88.3411 219.266 88.0859C219.109 87.7682 219.013 87.4167 218.977 87.0312C218.94 86.6458 218.943 86.276 218.984 85.9219ZM226.625 90H228.039L229.094 83.9297C229.234 83.7422 229.388 83.5677 229.555 83.4062C229.727 83.2396 229.909 83.0964 230.102 82.9766C230.294 82.862 230.5 82.7734 230.719 82.7109C230.943 82.6432 231.177 82.612 231.422 82.6172C231.734 82.6224 231.992 82.6797 232.195 82.7891C232.398 82.8932 232.557 83.0365 232.672 83.2188C232.781 83.401 232.849 83.6146 232.875 83.8594C232.906 84.1042 232.906 84.3698 232.875 84.6562L231.977 90H233.391L234.273 84.7188C234.336 84.2917 234.333 83.8698 234.266 83.4531C234.198 83.0312 234.07 82.6719 233.883 82.375C233.69 82.0833 233.432 81.849 233.109 81.6719C232.786 81.4948 232.388 81.401 231.914 81.3906C231.633 81.3854 231.365 81.4167 231.109 81.4844C230.854 81.5469 230.612 81.6406 230.383 81.7656C230.154 81.8906 229.938 82.0417 229.734 82.2188C229.531 82.3958 229.344 82.5885 229.172 82.7969L229.352 81.5391L228.094 81.5469L226.625 90Z" fill="white"/>
<path d="M41.6484 69.7305V93H32.4336V63.4141H41.0742L41.6484 69.7305ZM40.5547 77.1953L38.3945 77.25C38.3945 74.9896 38.668 72.9753 39.2148 71.207C39.7617 69.4206 40.5365 67.9076 41.5391 66.668C42.5417 65.4284 43.7357 64.4896 45.1211 63.8516C46.5247 63.1953 48.0833 62.8672 49.7969 62.8672C51.1641 62.8672 52.4128 63.0677 53.543 63.4688C54.6914 63.8698 55.6758 64.5169 56.4961 65.4102C57.3346 66.3034 57.9727 67.4883 58.4102 68.9648C58.8659 70.4232 59.0938 72.2279 59.0938 74.3789V93H49.8242V74.3516C49.8242 73.1667 49.6602 72.2643 49.332 71.6445C49.0039 71.0065 48.5299 70.569 47.9102 70.332C47.2904 70.0951 46.5339 69.9766 45.6406 69.9766C44.6927 69.9766 43.8906 70.1589 43.2344 70.5234C42.5781 70.888 42.0495 71.3984 41.6484 72.0547C41.2656 72.6927 40.9831 73.4492 40.8008 74.3242C40.6367 75.1992 40.5547 76.1562 40.5547 77.1953ZM81.4883 85.8086V63.4141H90.7305V93H82.0898L81.4883 85.8086ZM82.3633 79.793L84.7695 79.7383C84.7695 81.7253 84.5326 83.5664 84.0586 85.2617C83.5846 86.9388 82.8828 88.3971 81.9531 89.6367C81.0417 90.8763 79.9115 91.8424 78.5625 92.5352C77.2318 93.2096 75.6914 93.5469 73.9414 93.5469C72.4831 93.5469 71.1432 93.3464 69.9219 92.9453C68.7188 92.526 67.6797 91.8789 66.8047 91.0039C65.9297 90.1107 65.2461 88.9714 64.7539 87.5859C64.2799 86.1823 64.043 84.5052 64.043 82.5547V63.4141H73.2578V82.6094C73.2578 83.2656 73.3398 83.8307 73.5039 84.3047C73.668 84.7786 73.9049 85.1797 74.2148 85.5078C74.5247 85.8177 74.9076 86.0547 75.3633 86.2188C75.8372 86.3646 76.375 86.4375 76.9766 86.4375C78.362 86.4375 79.4466 86.1458 80.2305 85.5625C81.0143 84.9792 81.5612 84.1862 81.8711 83.1836C82.1992 82.181 82.3633 81.0508 82.3633 79.793Z" fill="white"/>
<line x1="18.5014" y1="23.397" x2="2.39702" y2="93.4986" stroke="white" stroke-width="4" stroke-linecap="round"/>
<line x1="2.82534" y1="94.868" x2="55.868" y2="143.175" stroke="white" stroke-width="4" stroke-linecap="round"/>
<line x1="57.2542" y1="143.465" x2="124.465" y2="120.746" stroke="white" stroke-width="4" stroke-linecap="round"/>
<line x1="125.481" y1="119.614" x2="140.614" y2="51.5185" stroke="white" stroke-width="4" stroke-linecap="round"/>
<line x1="140.183" y1="50.2561" x2="83.2561" y2="2.81681" stroke="white" stroke-width="4" stroke-linecap="round"/>
<line x1="81.7085" y1="2.51635" x2="19.5164" y2="22.5215" stroke="white" stroke-width="4" stroke-linecap="round"/>
</svg>
