<svg xmlns="http://www.w3.org/2000/svg" width="33.75" viewBox="0 0 33.75 56.25" height="56.25" version="1.0"><defs><clipPath id="a"><path d="M 4 0 L 30 0 L 30 55.511719 L 4 55.511719 Z M 4 0"/></clipPath></defs><g clip-path="url(#a)"><g><g><g><path d="M 2.640625 -41.171875 C 2.640625 -45.359375 3.660156 -48.675781 5.703125 -51.125 C 7.742188 -53.582031 10.859375 -54.8125 15.046875 -54.8125 C 19.234375 -54.8125 22.359375 -53.582031 24.421875 -51.125 C 26.492188 -48.675781 27.53125 -45.359375 27.53125 -41.171875 L 27.53125 -13.109375 C 27.53125 -8.972656 26.492188 -5.660156 24.421875 -3.171875 C 22.359375 -0.691406 19.234375 0.546875 15.046875 0.546875 C 10.859375 0.546875 7.742188 -0.691406 5.703125 -3.171875 C 3.660156 -5.660156 2.640625 -8.972656 2.640625 -13.109375 Z M 8.609375 -12.796875 C 8.609375 -10.316406 9.132812 -8.390625 10.1875 -7.015625 C 11.25 -5.648438 12.867188 -4.96875 15.046875 -4.96875 C 17.265625 -4.96875 18.890625 -5.648438 19.921875 -7.015625 C 20.953125 -8.390625 21.46875 -10.316406 21.46875 -12.796875 L 21.46875 -41.484375 C 21.46875 -43.960938 20.953125 -45.882812 19.921875 -47.25 C 18.890625 -48.625 17.265625 -49.3125 15.046875 -49.3125 C 12.867188 -49.3125 11.25 -48.625 10.1875 -47.25 C 9.132812 -45.882812 8.609375 -43.960938 8.609375 -41.484375 Z M 8.609375 -12.796875" transform="translate(1.79 54.728)"/></g></g></g></g></svg>