<svg xmlns="http://www.w3.org/2000/svg" width="375" viewBox="0 0 375 375" height="375" version="1.0"><g><g><g><path d="M 11.953125 -186.703125 C 11.953125 -205.679688 16.582031 -220.738281 25.84375 -231.875 C 35.101562 -243.007812 49.222656 -248.578125 68.203125 -248.578125 C 87.191406 -248.578125 101.375 -243.007812 110.75 -231.875 C 120.125 -220.738281 124.8125 -205.679688 124.8125 -186.703125 L 124.8125 -59.421875 C 124.8125 -40.671875 120.125 -25.664062 110.75 -14.40625 C 101.375 -3.15625 87.191406 2.46875 68.203125 2.46875 C 49.222656 2.46875 35.101562 -3.15625 25.84375 -14.40625 C 16.582031 -25.664062 11.953125 -40.671875 11.953125 -59.421875 Z M 39.03125 -58.015625 C 39.03125 -46.765625 41.429688 -38.03125 46.234375 -31.8125 C 51.035156 -25.601562 58.359375 -22.5 68.203125 -22.5 C 78.285156 -22.5 85.671875 -25.601562 90.359375 -31.8125 C 95.046875 -38.03125 97.390625 -46.765625 97.390625 -58.015625 L 97.390625 -188.109375 C 97.390625 -199.359375 95.046875 -208.085938 90.359375 -214.296875 C 85.671875 -220.503906 78.285156 -223.609375 68.203125 -223.609375 C 58.359375 -223.609375 51.035156 -220.503906 46.234375 -214.296875 C 41.429688 -208.085938 39.03125 -199.359375 39.03125 -188.109375 Z M 39.03125 -58.015625" transform="translate(119.826 298.602)"/></g></g></g></svg>