<svg width="133" height="121" viewBox="0 0 133 121" fill="none" xmlns="http://www.w3.org/2000/svg">
<path d="M67.0195 79.5244C67.0195 80.0443 67.4611 80.4697 67.9937 80.4697H92.022C92.5545 80.4697 92.9961 80.0443 92.9961 79.5244V73.8525C92.9961 73.3326 92.5545 72.9072 92.022 72.9072H67.9937C67.4611 72.9072 67.0195 73.3326 67.0195 73.8525V79.5244ZM41.7054 80.2452L66.6429 61.2208C67.1364 60.8427 67.1364 60.1455 66.6429 59.7674L41.7054 40.7548C41.5548 40.6383 41.3707 40.5636 41.1749 40.5395C40.979 40.5154 40.7797 40.5429 40.6006 40.6188C40.4214 40.6947 40.27 40.8158 40.1642 40.9676C40.0585 41.1195 40.0028 41.2958 40.0039 41.4756V48.8845C40.0039 49.1681 40.1338 49.428 40.3806 49.6053L54.6417 60.5L40.3806 71.3947C40.2645 71.4831 40.1707 71.5933 40.1057 71.7177C40.0407 71.8421 40.006 71.9778 40.0039 72.1155V79.5244C40.0039 80.3279 41.03 80.7651 41.7054 80.2452ZM114.297 13.2344H18.7031C16.4042 13.2344 14.5469 14.9241 14.5469 17.0156V103.984C14.5469 106.076 16.4042 107.766 18.7031 107.766H114.297C116.596 107.766 118.453 106.076 118.453 103.984V17.0156C118.453 14.9241 116.596 13.2344 114.297 13.2344ZM109.102 99.2578H23.8984V21.7422H109.102V99.2578Z" fill="#F8F8F8"/>
</svg>
