<svg width="172" height="162" viewBox="0 0 172 162" fill="none" xmlns="http://www.w3.org/2000/svg">
<path d="M86 0C77.1448 0 55.4839 26.5523 55.4839 75.7742C55.4839 125.506 74.4289 159.217 75.2361 160.626L76.0212 162H95.9788L96.7639 160.626C97.5712 159.217 116.516 125.506 116.516 75.7742C116.516 26.5523 94.8552 0 86 0ZM92.6109 156.774H88.7742V138.484H83.2258V156.774H79.3891C76.8923 151.93 68.6502 134.572 64.1116 109.509C68.3617 115.634 74.7978 122.177 84.5824 127.666C95.3491 133.705 97.9429 141.272 98.4839 143.446C95.9455 150.049 93.715 154.634 92.6109 156.774ZM101.158 135.952C98.8223 132.054 94.6999 127.256 87.4232 123.172C65.5126 110.886 62.0532 93.0559 61.5677 89.4632C61.3374 86.3773 61.196 83.2027 61.121 79.9653C65.0909 86.9078 72.1263 94.8327 84.624 101.558C102.448 111.153 105.447 120.648 105.5 120.815C104.138 126.41 102.648 131.484 101.158 135.952ZM87.376 96.9779C61.2209 82.8996 61.54 62.7097 61.5649 62.7097H61.5594C64.2864 28.7419 76.9118 12.2493 83.2258 6.93987V88.8387H88.7742V6.93987C95.8761 12.9104 110.968 34.6262 110.968 75.7742C110.968 89.505 109.436 102.034 107.248 112.974C104.035 108.671 98.1316 102.768 87.376 96.9779Z" fill="white"/>
</svg>
